REM DIRINDEX 1\2\4\18,1\2\4\19,1\2\5\20,1\2\5\21,1\2\6\22,1\2\7\23,1\2\8\24,1\2\8\25,1\2\9\26,1\2\10\27,1\3\11\28,1\3\11\29,1\3\11\30,1\3\11\31,1\3\12\32,1\3\12\33,1\3\12\34,1\3\12\35,1\3\13\36,1\3\13\37,1\3\14\38,1\3\14\39,1\3\15\40,1\3\15\41,1\3\15\42,1\3\16\43,1\3\16\44,1\3\17\45,1\3\17\46
REM DIRNAME folder01,folder02,folder03,folder04,folder05,folder06,folder07,folder08,folder09,folder10,folder11,folder12,folder13,folder14,folder15,folder16,folder17,folder18,folder19,folder20,folder21,folder22,folder23,folder24,folder25,folder26,folder27,folder28,folder29,folder30,folder31,folder32,folder33,folder34,folder35,folder36,folder37,folder38,folder39,folder40,folder41,folder42,folder43,folder44,folder45,folder46
TITLE ""
FILE "07.mp3" MP3
  TRACK 01 AUDIO
    TITLE "0:"
    INDEX 01 00:00:00
  TRACK 02 AUDIO
    TITLE "28:cjc023_4860"
    INDEX 01 00:00:13
  TRACK 03 AUDIO
    TITLE "0:"
    INDEX 01 00:01:17
  TRACK 04 AUDIO
    TITLE "29:cjc023_4861"
    INDEX 01 00:01:71
  TRACK 05 AUDIO
    TITLE "0:"
    INDEX 01 00:04:40
  TRACK 06 AUDIO
    TITLE "30:cjc023_4862"
    INDEX 01 00:04:58
  TRACK 07 AUDIO
    TITLE "0:"
    INDEX 01 00:07:15
  TRACK 08 AUDIO
    TITLE "31:cjc023_4863"
    INDEX 01 00:07:35
  TRACK 09 AUDIO
    TITLE "0:"
    INDEX 01 00:09:67
  TRACK 10 AUDIO
    TITLE "28:cjc023_4864"
    INDEX 01 00:10:66
  TRACK 11 AUDIO
    TITLE "0:"
    INDEX 01 00:12:07
  TRACK 12 AUDIO
    TITLE "29:cjc023_4865"
    INDEX 01 00:12:56
  TRACK 13 AUDIO
    TITLE "0:"
    INDEX 01 00:16:08
  TRACK 14 AUDIO
    TITLE "30:cjc023_4866"
    INDEX 01 00:16:30
  TRACK 15 AUDIO
    TITLE "0:"
    INDEX 01 00:19:01
  TRACK 16 AUDIO
    TITLE "31:cjc023_4867"
    INDEX 01 00:19:24
  TRACK 17 AUDIO
    TITLE "0:"
    INDEX 01 00:21:72
  TRACK 18 AUDIO
    TITLE "28:cjc023_4868"
    INDEX 01 00:22:70
  TRACK 19 AUDIO
    TITLE "0:"
    INDEX 01 00:24:25
  TRACK 20 AUDIO
    TITLE "29:cjc023_4869"
    INDEX 01 00:24:71
  TRACK 21 AUDIO
    TITLE "0:"
    INDEX 01 00:26:34
  TRACK 22 AUDIO
    TITLE "30:cjc023_4870"
    INDEX 01 00:26:56
  TRACK 23 AUDIO
    TITLE "0:"
    INDEX 01 00:29:05
  TRACK 24 AUDIO
    TITLE "31:cjc023_4871"
    INDEX 01 00:29:27
  TRACK 25 AUDIO
    TITLE "0:"
    INDEX 01 00:31:49
  TRACK 26 AUDIO
    TITLE "28:cjc023_4872"
    INDEX 01 00:32:47
  TRACK 27 AUDIO
    TITLE "0:"
    INDEX 01 00:33:64
  TRACK 28 AUDIO
    TITLE "29:cjc023_4873"
    INDEX 01 00:34:40
  TRACK 29 AUDIO
    TITLE "0:"
    INDEX 01 00:37:69
  TRACK 30 AUDIO
    TITLE "30:cjc023_4874"
    INDEX 01 00:38:14
  TRACK 31 AUDIO
    TITLE "0:"
    INDEX 01 00:40:62
  TRACK 32 AUDIO
    TITLE "31:cjc023_4875"
    INDEX 01 00:41:10
  TRACK 33 AUDIO
    TITLE "0:"
    INDEX 01 00:43:58
  TRACK 34 AUDIO
    TITLE "28:cjc023_4876"
    INDEX 01 00:44:54
  TRACK 35 AUDIO
    TITLE "0:"
    INDEX 01 00:46:09
  TRACK 36 AUDIO
    TITLE "29:cjc023_4877"
    INDEX 01 00:46:56
  TRACK 37 AUDIO
    TITLE "0:"
    INDEX 01 00:49:61
  TRACK 38 AUDIO
    TITLE "30:cjc023_4878"
    INDEX 01 00:50:09
  TRACK 39 AUDIO
    TITLE "0:"
    INDEX 01 00:52:67
  TRACK 40 AUDIO
    TITLE "31:cjc023_4879"
    INDEX 01 00:53:17
  TRACK 41 AUDIO
    TITLE "0:"
    INDEX 01 00:56:00
  TRACK 42 AUDIO
    TITLE "28:cjc023_4880"
    INDEX 01 00:56:74
  TRACK 43 AUDIO
    TITLE "0:"
    INDEX 01 00:58:15
  TRACK 44 AUDIO
    TITLE "29:cjc023_4881"
    INDEX 01 00:58:64
  TRACK 45 AUDIO
    TITLE "0:"
    INDEX 01 01:01:44
  TRACK 46 AUDIO
    TITLE "30:cjc023_4882"
    INDEX 01 01:01:66
  TRACK 47 AUDIO
    TITLE "0:"
    INDEX 01 01:04:64
  TRACK 48 AUDIO
    TITLE "31:cjc023_4883"
    INDEX 01 01:05:09
  TRACK 49 AUDIO
    TITLE "0:"
    INDEX 01 01:08:05
  TRACK 50 AUDIO
    TITLE "28:cjc023_4884"
    INDEX 01 01:09:01
  TRACK 51 AUDIO
    TITLE "0:"
    INDEX 01 01:10:26
  TRACK 52 AUDIO
    TITLE "29:cjc023_4885"
    INDEX 01 01:11:00
  TRACK 53 AUDIO
    TITLE "0:"
    INDEX 01 01:14:37
  TRACK 54 AUDIO
    TITLE "30:cjc023_4886"
    INDEX 01 01:14:57
  TRACK 55 AUDIO
    TITLE "0:"
    INDEX 01 01:17:12
  TRACK 56 AUDIO
    TITLE "31:cjc023_4887"
    INDEX 01 01:17:32
  TRACK 57 AUDIO
    TITLE "0:"
    INDEX 01 01:19:62
  TRACK 58 AUDIO
    TITLE "28:cjc023_4888"
    INDEX 01 01:20:55
  TRACK 59 AUDIO
    TITLE "0:"
    INDEX 01 01:21:70
  TRACK 60 AUDIO
    TITLE "29:cjc023_4889"
    INDEX 01 01:22:42
  TRACK 61 AUDIO
    TITLE "0:"
    INDEX 01 01:26:11
  TRACK 62 AUDIO
    TITLE "30:cjc023_4890"
    INDEX 01 01:26:34
  TRACK 63 AUDIO
    TITLE "0:"
    INDEX 01 01:30:40
  TRACK 64 AUDIO
    TITLE "31:cjc023_4891"
    INDEX 01 01:30:62
  TRACK 65 AUDIO
    TITLE "0:"
    INDEX 01 01:34:69
  TRACK 66 AUDIO
    TITLE "28:cjc023_4892"
    INDEX 01 01:35:65
  TRACK 67 AUDIO
    TITLE "0:"
    INDEX 01 01:37:01
  TRACK 68 AUDIO
    TITLE "29:cjc023_4893"
    INDEX 01 01:37:50
  TRACK 69 AUDIO
    TITLE "0:"
    INDEX 01 01:40:56
  TRACK 70 AUDIO
    TITLE "30:cjc023_4894"
    INDEX 01 01:41:05
  TRACK 71 AUDIO
    TITLE "0:"
    INDEX 01 01:43:13
  TRACK 72 AUDIO
    TITLE "31:cjc023_4895"
    INDEX 01 01:43:37
  TRACK 73 AUDIO
    TITLE "0:"
    INDEX 01 01:45:45
  TRACK 74 AUDIO
    TITLE "28:cjc023_4896"
    INDEX 01 01:46:43
  TRACK 75 AUDIO
    TITLE "0:"
    INDEX 01 01:48:01
  TRACK 76 AUDIO
    TITLE "29:cjc023_4897"
    INDEX 01 01:48:50
  TRACK 77 AUDIO
    TITLE "0:"
    INDEX 01 01:50:33
  TRACK 78 AUDIO
    TITLE "30:cjc023_4898"
    INDEX 01 01:50:56
  TRACK 79 AUDIO
    TITLE "0:"
    INDEX 01 01:52:65
  TRACK 80 AUDIO
    TITLE "31:cjc023_4899"
    INDEX 01 01:53:16
  TRACK 81 AUDIO
    TITLE "0:"
    INDEX 01 01:55:24
  TRACK 82 AUDIO
    TITLE "28:cjc023_4900"
    INDEX 01 01:56:26
  TRACK 83 AUDIO
    TITLE "0:"
    INDEX 01 01:57:49
  TRACK 84 AUDIO
    TITLE "29:cjc023_4901"
    INDEX 01 01:58:21
  TRACK 85 AUDIO
    TITLE "0:"
    INDEX 01 02:00:29
  TRACK 86 AUDIO
    TITLE "30:cjc023_4902"
    INDEX 01 02:00:49
  TRACK 87 AUDIO
    TITLE "0:"
    INDEX 01 02:02:24
  TRACK 88 AUDIO
    TITLE "31:cjc023_4903"
    INDEX 01 02:02:46
  TRACK 89 AUDIO
    TITLE "0:"
    INDEX 01 02:04:23
  TRACK 90 AUDIO
    TITLE "28:cjc023_4904"
    INDEX 01 02:05:19
  TRACK 91 AUDIO
    TITLE "0:"
    INDEX 01 02:06:22
  TRACK 92 AUDIO
    TITLE "29:cjc023_4905"
    INDEX 01 02:06:67
  TRACK 93 AUDIO
    TITLE "0:"
    INDEX 01 02:09:03
  TRACK 94 AUDIO
    TITLE "30:cjc023_4906"
    INDEX 01 02:09:26
  TRACK 95 AUDIO
    TITLE "0:"
    INDEX 01 02:10:55
  TRACK 96 AUDIO
    TITLE "31:cjc023_4907"
    INDEX 01 02:11:02
  TRACK 97 AUDIO
    TITLE "0:"
    INDEX 01 02:12:29
  TRACK 98 AUDIO
    TITLE "28:cjc023_4908"
    INDEX 01 02:13:26
  TRACK 99 AUDIO
    TITLE "0:"
    INDEX 01 02:14:67
  TRACK 100 AUDIO
    TITLE "29:cjc023_4909"
    INDEX 01 02:15:39
  TRACK 101 AUDIO
    TITLE "0:"
    INDEX 01 02:17:22
  TRACK 102 AUDIO
    TITLE "30:cjc023_4910"
    INDEX 01 02:17:44
  TRACK 103 AUDIO
    TITLE "0:"
    INDEX 01 02:19:74
  TRACK 104 AUDIO
    TITLE "31:cjc023_4911"
    INDEX 01 02:20:18
  TRACK 105 AUDIO
    TITLE "0:"
    INDEX 01 02:22:51
  TRACK 106 AUDIO
    TITLE "28:cjc023_4912"
    INDEX 01 02:23:46
  TRACK 107 AUDIO
    TITLE "0:"
    INDEX 01 02:24:57
  TRACK 108 AUDIO
    TITLE "29:cjc023_4913"
    INDEX 01 02:25:29
  TRACK 109 AUDIO
    TITLE "0:"
    INDEX 01 02:26:48
  TRACK 110 AUDIO
    TITLE "30:cjc023_4914"
    INDEX 01 02:26:72
  TRACK 111 AUDIO
    TITLE "0:"
    INDEX 01 02:28:55
  TRACK 112 AUDIO
    TITLE "31:cjc023_4915"
    INDEX 01 02:29:00
  TRACK 113 AUDIO
    TITLE "0:"
    INDEX 01 02:30:56
  TRACK 114 AUDIO
    TITLE "28:cjc023_4916"
    INDEX 01 02:31:55
  TRACK 115 AUDIO
    TITLE "0:"
    INDEX 01 02:32:72
  TRACK 116 AUDIO
    TITLE "29:cjc023_4917"
    INDEX 01 02:33:46
  TRACK 117 AUDIO
    TITLE "0:"
    INDEX 01 02:35:24
  TRACK 118 AUDIO
    TITLE "30:cjc023_4918"
    INDEX 01 02:35:47
  TRACK 119 AUDIO
    TITLE "0:"
    INDEX 01 02:37:38
  TRACK 120 AUDIO
    TITLE "31:cjc023_4919"
    INDEX 01 02:37:60
  TRACK 121 AUDIO
    TITLE "0:"
    INDEX 01 02:39:47
  TRACK 122 AUDIO
    TITLE "28:cjc023_4920"
    INDEX 01 02:40:47
  TRACK 123 AUDIO
    TITLE "0:"
    INDEX 01 02:42:00
  TRACK 124 AUDIO
    TITLE "29:cjc023_4921"
    INDEX 01 02:42:47
  TRACK 125 AUDIO
    TITLE "0:"
    INDEX 01 02:44:46
  TRACK 126 AUDIO
    TITLE "30:cjc023_4922"
    INDEX 01 02:44:70
  TRACK 127 AUDIO
    TITLE "0:"
    INDEX 01 02:47:07
  TRACK 128 AUDIO
    TITLE "31:cjc023_4923"
    INDEX 01 02:47:27
  TRACK 129 AUDIO
    TITLE "0:"
    INDEX 01 02:49:38
  TRACK 130 AUDIO
    TITLE "28:cjc023_4924"
    INDEX 01 02:50:33
  TRACK 131 AUDIO
    TITLE "0:"
    INDEX 01 02:51:48
  TRACK 132 AUDIO
    TITLE "29:cjc023_4925"
    INDEX 01 02:52:20
  TRACK 133 AUDIO
    TITLE "0:"
    INDEX 01 02:53:55
  TRACK 134 AUDIO
    TITLE "30:cjc023_4926"
    INDEX 01 02:54:04
  TRACK 135 AUDIO
    TITLE "0:"
    INDEX 01 02:56:06
  TRACK 136 AUDIO
    TITLE "31:cjc023_4927"
    INDEX 01 02:56:26
  TRACK 137 AUDIO
    TITLE "0:"
    INDEX 01 02:58:27
  TRACK 138 AUDIO
    TITLE "28:cjc023_4928"
    INDEX 01 02:59:20
  TRACK 139 AUDIO
    TITLE "0:"
    INDEX 01 03:00:34
  TRACK 140 AUDIO
    TITLE "29:cjc023_4929"
    INDEX 01 03:01:06
  TRACK 141 AUDIO
    TITLE "0:"
    INDEX 01 03:02:54
  TRACK 142 AUDIO
    TITLE "30:cjc023_4930"
    INDEX 01 03:03:04
  TRACK 143 AUDIO
    TITLE "0:"
    INDEX 01 03:04:49
  TRACK 144 AUDIO
    TITLE "31:cjc023_4931"
    INDEX 01 03:04:71
  TRACK 145 AUDIO
    TITLE "0:"
    INDEX 01 03:06:40
  TRACK 146 AUDIO
    TITLE "28:cjc023_4932"
    INDEX 01 03:07:39
  TRACK 147 AUDIO
    TITLE "0:"
    INDEX 01 03:08:62
  TRACK 148 AUDIO
    TITLE "29:cjc023_4933"
    INDEX 01 03:09:38
  TRACK 149 AUDIO
    TITLE "0:"
    INDEX 01 03:11:67
  TRACK 150 AUDIO
    TITLE "30:cjc023_4934"
    INDEX 01 03:12:11
  TRACK 151 AUDIO
    TITLE "0:"
    INDEX 01 03:14:14
  TRACK 152 AUDIO
    TITLE "31:cjc023_4935"
    INDEX 01 03:14:34
  TRACK 153 AUDIO
    TITLE "0:"
    INDEX 01 03:16:38
  TRACK 154 AUDIO
    TITLE "28:cjc023_4936"
    INDEX 01 03:17:34
  TRACK 155 AUDIO
    TITLE "0:"
    INDEX 01 03:18:45
  TRACK 156 AUDIO
    TITLE "29:cjc023_4937"
    INDEX 01 03:19:17
  TRACK 157 AUDIO
    TITLE "0:"
    INDEX 01 03:21:67
  TRACK 158 AUDIO
    TITLE "30:cjc023_4938"
    INDEX 01 03:22:16
  TRACK 159 AUDIO
    TITLE "0:"
    INDEX 01 03:24:36
  TRACK 160 AUDIO
    TITLE "31:cjc023_4939"
    INDEX 01 03:24:60
  TRACK 161 AUDIO
    TITLE "0:"
    INDEX 01 03:27:05
  TRACK 162 AUDIO
    TITLE "28:cjc023_4940"
    INDEX 01 03:28:02
  TRACK 163 AUDIO
    TITLE "0:"
    INDEX 01 03:29:21
  TRACK 164 AUDIO
    TITLE "29:cjc023_4941"
    INDEX 01 03:29:70
  TRACK 165 AUDIO
    TITLE "0:"
    INDEX 01 03:33:19
  TRACK 166 AUDIO
    TITLE "30:cjc023_4942"
    INDEX 01 03:33:41
  TRACK 167 AUDIO
    TITLE "0:"
    INDEX 01 03:36:12
  TRACK 168 AUDIO
    TITLE "31:cjc023_4943"
    INDEX 01 03:36:37
  TRACK 169 AUDIO
    TITLE "0:"
    INDEX 01 03:39:08
  TRACK 170 AUDIO
    TITLE "28:cjc023_4944"
    INDEX 01 03:40:06
  TRACK 171 AUDIO
    TITLE "0:"
    INDEX 01 03:41:17
  TRACK 172 AUDIO
    TITLE "29:cjc023_4945"
    INDEX 01 03:41:66
  TRACK 173 AUDIO
    TITLE "0:"
    INDEX 01 03:45:05
  TRACK 174 AUDIO
    TITLE "30:cjc023_4946"
    INDEX 01 03:45:30
  TRACK 175 AUDIO
    TITLE "0:"
    INDEX 01 03:47:70
  TRACK 176 AUDIO
    TITLE "31:cjc023_4947"
    INDEX 01 03:48:17
  TRACK 177 AUDIO
    TITLE "0:"
    INDEX 01 03:50:55
  TRACK 178 AUDIO
    TITLE "28:cjc023_4948"
    INDEX 01 03:51:54
  TRACK 179 AUDIO
    TITLE "0:"
    INDEX 01 03:52:60
  TRACK 180 AUDIO
    TITLE "29:cjc023_4949"
    INDEX 01 03:53:34
  TRACK 181 AUDIO
    TITLE "0:"
    INDEX 01 03:55:56
  TRACK 182 AUDIO
    TITLE "30:cjc023_4950"
    INDEX 01 03:56:01
  TRACK 183 AUDIO
    TITLE "0:"
    INDEX 01 03:58:33
  TRACK 184 AUDIO
    TITLE "31:cjc023_4951"
    INDEX 01 03:58:58
  TRACK 185 AUDIO
    TITLE "0:"
    INDEX 01 04:01:18
  TRACK 186 AUDIO
    TITLE "28:cjc023_4952"
    INDEX 01 04:02:17
  TRACK 187 AUDIO
    TITLE "0:"
    INDEX 01 04:03:36
  TRACK 188 AUDIO
    TITLE "29:cjc023_4953"
    INDEX 01 04:04:10
  TRACK 189 AUDIO
    TITLE "0:"
    INDEX 01 04:08:00
  TRACK 190 AUDIO
    TITLE "30:cjc023_4954"
    INDEX 01 04:08:24
  TRACK 191 AUDIO
    TITLE "0:"
    INDEX 01 04:12:08
  TRACK 192 AUDIO
    TITLE "31:cjc023_4955"
    INDEX 01 04:12:29
  TRACK 193 AUDIO
    TITLE "0:"
    INDEX 01 04:16:13
  TRACK 194 AUDIO
    TITLE "28:cjc023_4956"
    INDEX 01 04:17:11
  TRACK 195 AUDIO
    TITLE "0:"
    INDEX 01 04:18:22
  TRACK 196 AUDIO
    TITLE "29:cjc023_4957"
    INDEX 01 04:19:04
  TRACK 197 AUDIO
    TITLE "0:"
    INDEX 01 04:21:52
  TRACK 198 AUDIO
    TITLE "30:cjc023_4958"
    INDEX 01 04:21:73
  TRACK 199 AUDIO
    TITLE "0:"
    INDEX 01 04:24:36
  TRACK 200 AUDIO
    TITLE "31:cjc023_4959"
    INDEX 01 04:24:56
  TRACK 201 AUDIO
    TITLE "0:"
    INDEX 01 04:27:17
  TRACK 202 AUDIO
    TITLE "28:cjc023_4960"
    INDEX 01 04:28:14
  TRACK 203 AUDIO
    TITLE "0:"
    INDEX 01 04:29:45
  TRACK 204 AUDIO
    TITLE "29:cjc023_4961"
    INDEX 01 04:30:17
  TRACK 205 AUDIO
    TITLE "0:"
    INDEX 01 04:32:46
  TRACK 206 AUDIO
    TITLE "30:cjc023_4962"
    INDEX 01 04:32:69
  TRACK 207 AUDIO
    TITLE "0:"
    INDEX 01 04:35:30
  TRACK 208 AUDIO
    TITLE "31:cjc023_4963"
    INDEX 01 04:35:56
  TRACK 209 AUDIO
    TITLE "0:"
    INDEX 01 04:38:13
  TRACK 210 AUDIO
    TITLE "28:cjc023_4964"
    INDEX 01 04:39:12
  TRACK 211 AUDIO
    TITLE "0:"
    INDEX 01 04:40:37
  TRACK 212 AUDIO
    TITLE "29:cjc023_4965"
    INDEX 01 04:41:09
  TRACK 213 AUDIO
    TITLE "0:"
    INDEX 01 04:43:12
  TRACK 214 AUDIO
    TITLE "30:cjc023_4966"
    INDEX 01 04:43:34
  TRACK 215 AUDIO
    TITLE "0:"
    INDEX 01 04:45:48
  TRACK 216 AUDIO
    TITLE "31:cjc023_4967"
    INDEX 01 04:45:72
  TRACK 217 AUDIO
    TITLE "0:"
    INDEX 01 04:48:11
  TRACK 218 AUDIO
    TITLE "28:cjc023_4968"
    INDEX 01 04:49:09
  TRACK 219 AUDIO
    TITLE "0:"
    INDEX 01 04:50:26
  TRACK 220 AUDIO
    TITLE "29:cjc023_4969"
    INDEX 01 04:50:73
  TRACK 221 AUDIO
    TITLE "0:"
    INDEX 01 04:53:05
  TRACK 222 AUDIO
    TITLE "30:cjc023_4970"
    INDEX 01 04:53:26
  TRACK 223 AUDIO
    TITLE "0:"
    INDEX 01 04:55:37
  TRACK 224 AUDIO
    TITLE "31:cjc023_4971"
    INDEX 01 04:55:62
  TRACK 225 AUDIO
    TITLE "0:"
    INDEX 01 04:57:71
  TRACK 226 AUDIO
    TITLE "28:cjc023_4972"
    INDEX 01 04:58:72
  TRACK 227 AUDIO
    TITLE "0:"
    INDEX 01 05:00:11
  TRACK 228 AUDIO
    TITLE "29:cjc023_4973"
    INDEX 01 05:00:58
  TRACK 229 AUDIO
    TITLE "0:"
    INDEX 01 05:02:72
  TRACK 230 AUDIO
    TITLE "30:cjc023_4974"
    INDEX 01 05:03:19
  TRACK 231 AUDIO
    TITLE "0:"
    INDEX 01 05:05:59
  TRACK 232 AUDIO
    TITLE "31:cjc023_4975"
    INDEX 01 05:06:09
  TRACK 233 AUDIO
    TITLE "0:"
    INDEX 01 05:08:51
  TRACK 234 AUDIO
    TITLE "28:cjc023_4976"
    INDEX 01 05:09:51
  TRACK 235 AUDIO
    TITLE "0:"
    INDEX 01 05:10:68
  TRACK 236 AUDIO
    TITLE "29:cjc023_4977"
    INDEX 01 05:11:42
  TRACK 237 AUDIO
    TITLE "0:"
    INDEX 01 05:13:62
  TRACK 238 AUDIO
    TITLE "30:cjc023_4978"
    INDEX 01 05:14:11
  TRACK 239 AUDIO
    TITLE "0:"
    INDEX 01 05:16:17
  TRACK 240 AUDIO
    TITLE "31:cjc023_4979"
    INDEX 01 05:16:41
  TRACK 241 AUDIO
    TITLE "0:"
    INDEX 01 05:18:48
  TRACK 242 AUDIO
    TITLE "28:cjc023_4980"
    INDEX 01 05:19:43
  TRACK 243 AUDIO
    TITLE "0:"
    INDEX 01 05:20:68
  TRACK 244 AUDIO
    TITLE "29:cjc023_4981"
    INDEX 01 05:21:50
  TRACK 245 AUDIO
    TITLE "0:"
    INDEX 01 05:24:29
  TRACK 246 AUDIO
    TITLE "30:cjc023_4982"
    INDEX 01 05:24:54
  TRACK 247 AUDIO
    TITLE "0:"
    INDEX 01 05:26:53
  TRACK 248 AUDIO
    TITLE "31:cjc023_4983"
    INDEX 01 05:27:03
  TRACK 249 AUDIO
    TITLE "0:"
    INDEX 01 05:29:06
  TRACK 250 AUDIO
    TITLE "28:cjc023_4984"
    INDEX 01 05:30:04
  TRACK 251 AUDIO
    TITLE "0:"
    INDEX 01 05:31:40
  TRACK 252 AUDIO
    TITLE "29:cjc023_4985"
    INDEX 01 05:32:12
  TRACK 253 AUDIO
    TITLE "0:"
    INDEX 01 05:34:60
  TRACK 254 AUDIO
    TITLE "30:cjc023_4986"
    INDEX 01 05:35:09
  TRACK 255 AUDIO
    TITLE "0:"
    INDEX 01 05:37:43
  TRACK 256 AUDIO
    TITLE "31:cjc023_4987"
    INDEX 01 05:37:67
  TRACK 257 AUDIO
    TITLE "0:"
    INDEX 01 05:40:28
  TRACK 258 AUDIO
    TITLE "28:cjc023_4988"
    INDEX 01 05:41:23
  TRACK 259 AUDIO
    TITLE "0:"
    INDEX 01 05:42:42
  TRACK 260 AUDIO
    TITLE "29:cjc023_4989"
    INDEX 01 05:43:14
  TRACK 261 AUDIO
    TITLE "0:"
    INDEX 01 05:44:72
  TRACK 262 AUDIO
    TITLE "30:cjc023_4990"
    INDEX 01 05:45:21
  TRACK 263 AUDIO
    TITLE "0:"
    INDEX 01 05:47:22
  TRACK 264 AUDIO
    TITLE "31:cjc023_4991"
    INDEX 01 05:47:43
  TRACK 265 AUDIO
    TITLE "0:"
    INDEX 01 05:49:46
  TRACK 266 AUDIO
    TITLE "28:cjc023_4992"
    INDEX 01 05:50:42
  TRACK 267 AUDIO
    TITLE "0:"
    INDEX 01 05:51:61
  TRACK 268 AUDIO
    TITLE "29:cjc023_4993"
    INDEX 01 05:52:35
  TRACK 269 AUDIO
    TITLE "0:"
    INDEX 01 05:54:67
  TRACK 270 AUDIO
    TITLE "30:cjc023_4994"
    INDEX 01 05:55:14
  TRACK 271 AUDIO
    TITLE "0:"
    INDEX 01 05:58:04
  TRACK 272 AUDIO
    TITLE "31:cjc023_4995"
    INDEX 01 05:58:26
  TRACK 273 AUDIO
    TITLE "0:"
    INDEX 01 06:01:18
  TRACK 274 AUDIO
    TITLE "28:cjc023_4996"
    INDEX 01 06:02:16
  TRACK 275 AUDIO
    TITLE "0:"
    INDEX 01 06:03:42
  TRACK 276 AUDIO
    TITLE "29:cjc023_4997"
    INDEX 01 06:04:12
  TRACK 277 AUDIO
    TITLE "0:"
    INDEX 01 06:06:41
  TRACK 278 AUDIO
    TITLE "30:cjc023_4998"
    INDEX 01 06:06:64
  TRACK 279 AUDIO
    TITLE "0:"
    INDEX 01 06:09:31
  TRACK 280 AUDIO
    TITLE "31:cjc023_4999"
    INDEX 01 06:09:53
  TRACK 281 AUDIO
    TITLE "0:"
    INDEX 01 06:12:20
  TRACK 282 AUDIO
    TITLE "28:cjc023_5000"
    INDEX 01 06:13:19
  TRACK 283 AUDIO
    TITLE "0:"
    INDEX 01 06:14:34
  TRACK 284 AUDIO
    TITLE "29:cjc023_5001"
    INDEX 01 06:15:12
  TRACK 285 AUDIO
    TITLE "0:"
    INDEX 01 06:16:55
  TRACK 286 AUDIO
    TITLE "30:cjc023_5002"
    INDEX 01 06:17:03
  TRACK 287 AUDIO
    TITLE "0:"
    INDEX 01 06:18:66
  TRACK 288 AUDIO
    TITLE "31:cjc023_5003"
    INDEX 01 06:19:12
  TRACK 289 AUDIO
    TITLE "0:"
    INDEX 01 06:20:72
  TRACK 290 AUDIO
    TITLE "28:cjc023_5004"
    INDEX 01 06:21:70
  TRACK 291 AUDIO
    TITLE "0:"
    INDEX 01 06:22:73
  TRACK 292 AUDIO
    TITLE "29:cjc023_5005"
    INDEX 01 06:23:47
  TRACK 293 AUDIO
    TITLE "0:"
    INDEX 01 06:26:45
  TRACK 294 AUDIO
    TITLE "30:cjc023_5006"
    INDEX 01 06:26:67
  TRACK 295 AUDIO
    TITLE "0:"
    INDEX 01 06:29:67
  TRACK 296 AUDIO
    TITLE "31:cjc023_5007"
    INDEX 01 06:30:20
  TRACK 297 AUDIO
    TITLE "0:"
    INDEX 01 06:33:18
  TRACK 298 AUDIO
    TITLE "28:cjc023_5008"
    INDEX 01 06:34:21
  TRACK 299 AUDIO
    TITLE "0:"
    INDEX 01 06:35:15
  TRACK 300 AUDIO
    TITLE "29:cjc023_5009"
    INDEX 01 06:35:64
  TRACK 301 AUDIO
    TITLE "0:"
    INDEX 01 06:37:49
  TRACK 302 AUDIO
    TITLE "30:cjc023_5010"
    INDEX 01 06:37:71
  TRACK 303 AUDIO
    TITLE "0:"
    INDEX 01 06:39:46
  TRACK 304 AUDIO
    TITLE "31:cjc023_5011"
    INDEX 01 06:39:66
  TRACK 305 AUDIO
    TITLE "0:"
    INDEX 01 06:41:41
  TRACK 306 AUDIO
    TITLE "28:cjc023_5012"
    INDEX 01 06:42:37
  TRACK 307 AUDIO
    TITLE "0:"
    INDEX 01 06:43:40
  TRACK 308 AUDIO
    TITLE "29:cjc023_5013"
    INDEX 01 06:44:16
  TRACK 309 AUDIO
    TITLE "0:"
    INDEX 01 06:47:48
  TRACK 310 AUDIO
    TITLE "30:cjc023_5014"
    INDEX 01 06:47:69
  TRACK 311 AUDIO
    TITLE "0:"
    INDEX 01 06:51:12
  TRACK 312 AUDIO
    TITLE "31:cjc023_5015"
    INDEX 01 06:51:34
  TRACK 313 AUDIO
    TITLE "0:"
    INDEX 01 06:54:54
  TRACK 314 AUDIO
    TITLE "28:cjc023_5016"
    INDEX 01 06:55:49
  TRACK 315 AUDIO
    TITLE "0:"
    INDEX 01 06:56:41
  TRACK 316 AUDIO
    TITLE "29:cjc023_5017"
    INDEX 01 06:57:15
  TRACK 317 AUDIO
    TITLE "0:"
    INDEX 01 06:58:45
  TRACK 318 AUDIO
    TITLE "30:cjc023_5018"
    INDEX 01 06:58:69
  TRACK 319 AUDIO
    TITLE "0:"
    INDEX 01 07:00:40
  TRACK 320 AUDIO
    TITLE "31:cjc023_5019"
    INDEX 01 07:00:62
  TRACK 321 AUDIO
    TITLE "0:"
    INDEX 01 07:02:33
  TRACK 322 AUDIO
    TITLE "28:cjc023_5020"
    INDEX 01 07:03:29
  TRACK 323 AUDIO
    TITLE "0:"
    INDEX 01 07:04:32
  TRACK 324 AUDIO
    TITLE "29:cjc023_5021"
    INDEX 01 07:05:10
  TRACK 325 AUDIO
    TITLE "0:"
    INDEX 01 07:08:63
  TRACK 326 AUDIO
    TITLE "30:cjc023_5022"
    INDEX 01 07:09:08
  TRACK 327 AUDIO
    TITLE "0:"
    INDEX 01 07:12:30
  TRACK 328 AUDIO
    TITLE "31:cjc023_5023"
    INDEX 01 07:12:53
  TRACK 329 AUDIO
    TITLE "0:"
    INDEX 01 07:16:02
  TRACK 330 AUDIO
    TITLE "28:cjc023_5024"
    INDEX 01 07:17:00
  TRACK 331 AUDIO
    TITLE "0:"
    INDEX 01 07:18:09
  TRACK 332 AUDIO
    TITLE "29:cjc023_5025"
    INDEX 01 07:18:60
  TRACK 333 AUDIO
    TITLE "0:"
    INDEX 01 07:20:43
  TRACK 334 AUDIO
    TITLE "30:cjc023_5026"
    INDEX 01 07:20:65
  TRACK 335 AUDIO
    TITLE "0:"
    INDEX 01 07:22:40
  TRACK 336 AUDIO
    TITLE "31:cjc023_5027"
    INDEX 01 07:22:62
  TRACK 337 AUDIO
    TITLE "0:"
    INDEX 01 07:24:37
  TRACK 338 AUDIO
    TITLE "28:cjc023_5028"
    INDEX 01 07:25:36
  TRACK 339 AUDIO
    TITLE "0:"
    INDEX 01 07:26:40
  TRACK 340 AUDIO
    TITLE "29:cjc023_5029"
    INDEX 01 07:27:14
  TRACK 341 AUDIO
    TITLE "0:"
    INDEX 01 07:29:48
  TRACK 342 AUDIO
    TITLE "30:cjc023_5030"
    INDEX 01 07:30:02
  TRACK 343 AUDIO
    TITLE "0:"
    INDEX 01 07:31:64
  TRACK 344 AUDIO
    TITLE "31:cjc023_5031"
    INDEX 01 07:32:13
  TRACK 345 AUDIO
    TITLE "0:"
    INDEX 01 07:34:00
  TRACK 346 AUDIO
    TITLE "28:cjc023_5032"
    INDEX 01 07:34:71
  TRACK 347 AUDIO
    TITLE "0:"
    INDEX 01 07:36:21
  TRACK 348 AUDIO
    TITLE "29:cjc023_5033"
    INDEX 01 07:36:70
  TRACK 349 AUDIO
    TITLE "0:"
    INDEX 01 07:39:62
  TRACK 350 AUDIO
    TITLE "30:cjc023_5034"
    INDEX 01 07:40:12
  TRACK 351 AUDIO
    TITLE "0:"
    INDEX 01 07:42:47
  TRACK 352 AUDIO
    TITLE "31:cjc023_5035"
    INDEX 01 07:42:68
  TRACK 353 AUDIO
    TITLE "0:"
    INDEX 01 07:45:29
  TRACK 354 AUDIO
    TITLE "28:cjc023_5036"
    INDEX 01 07:46:27
  TRACK 355 AUDIO
    TITLE "0:"
    INDEX 01 07:47:38
  TRACK 356 AUDIO
    TITLE "29:cjc023_5037"
    INDEX 01 07:48:12
  TRACK 357 AUDIO
    TITLE "0:"
    INDEX 01 07:49:31
  TRACK 358 AUDIO
    TITLE "30:cjc023_5038"
    INDEX 01 07:49:55
  TRACK 359 AUDIO
    TITLE "0:"
    INDEX 01 07:51:61
  TRACK 360 AUDIO
    TITLE "31:cjc023_5039"
    INDEX 01 07:52:06
  TRACK 361 AUDIO
    TITLE "0:"
    INDEX 01 07:54:15
  TRACK 362 AUDIO
    TITLE "28:cjc023_5040"
    INDEX 01 07:55:08
  TRACK 363 AUDIO
    TITLE "0:"
    INDEX 01 07:56:35
  TRACK 364 AUDIO
    TITLE "29:cjc023_5041"
    INDEX 01 07:57:07
  TRACK 365 AUDIO
    TITLE "0:"
    INDEX 01 07:58:59
  TRACK 366 AUDIO
    TITLE "30:cjc023_5042"
    INDEX 01 07:59:06
  TRACK 367 AUDIO
    TITLE "0:"
    INDEX 01 08:01:09
  TRACK 368 AUDIO
    TITLE "31:cjc023_5043"
    INDEX 01 08:01:32
  TRACK 369 AUDIO
    TITLE "0:"
    INDEX 01 08:03:33
  TRACK 370 AUDIO
    TITLE "28:cjc023_5044"
    INDEX 01 08:04:31
  TRACK 371 AUDIO
    TITLE "0:"
    INDEX 01 08:05:48
  TRACK 372 AUDIO
    TITLE "29:cjc023_5045"
    INDEX 01 08:06:20
  TRACK 373 AUDIO
    TITLE "0:"
    INDEX 01 08:08:17
  TRACK 374 AUDIO
    TITLE "30:cjc023_5046"
    INDEX 01 08:08:38
  TRACK 375 AUDIO
    TITLE "0:"
    INDEX 01 08:10:41
  TRACK 376 AUDIO
    TITLE "31:cjc023_5047"
    INDEX 01 08:10:66
  TRACK 377 AUDIO
    TITLE "0:"
    INDEX 01 08:12:69
  TRACK 378 AUDIO
    TITLE "28:cjc023_5048"
    INDEX 01 08:13:69
  TRACK 379 AUDIO
    TITLE "0:"
    INDEX 01 08:15:07
  TRACK 380 AUDIO
    TITLE "29:cjc023_5049"
    INDEX 01 08:15:54
  TRACK 381 AUDIO
    TITLE "0:"
    INDEX 01 08:18:01
  TRACK 382 AUDIO
    TITLE "30:cjc023_5050"
    INDEX 01 08:18:21
  TRACK 383 AUDIO
    TITLE "0:"
    INDEX 01 08:20:34
  TRACK 384 AUDIO
    TITLE "31:cjc023_5051"
    INDEX 01 08:20:59
  TRACK 385 AUDIO
    TITLE "0:"
    INDEX 01 08:22:72
  TRACK 386 AUDIO
    TITLE "28:cjc023_5052"
    INDEX 01 08:23:71
  TRACK 387 AUDIO
    TITLE "0:"
    INDEX 01 08:25:17
  TRACK 388 AUDIO
    TITLE "29:cjc023_5053"
    INDEX 01 08:25:64
  TRACK 389 AUDIO
    TITLE "0:"
    INDEX 01 08:27:14
  TRACK 390 AUDIO
    TITLE "30:cjc023_5054"
    INDEX 01 08:27:38
  TRACK 391 AUDIO
    TITLE "0:"
    INDEX 01 08:29:42
  TRACK 392 AUDIO
    TITLE "31:cjc023_5055"
    INDEX 01 08:29:66
  TRACK 393 AUDIO
    TITLE "0:"
    INDEX 01 08:31:69
  TRACK 394 AUDIO
    TITLE "28:cjc023_5056"
    INDEX 01 08:32:66
  TRACK 395 AUDIO
    TITLE "0:"
    INDEX 01 08:34:18
  TRACK 396 AUDIO
    TITLE "29:cjc023_5057"
    INDEX 01 08:34:63
  TRACK 397 AUDIO
    TITLE "0:"
    INDEX 01 08:36:56
  TRACK 398 AUDIO
    TITLE "30:cjc023_5058"
    INDEX 01 08:37:03
  TRACK 399 AUDIO
    TITLE "0:"
    INDEX 01 08:39:00
  TRACK 400 AUDIO
    TITLE "31:cjc023_5059"
    INDEX 01 08:39:21
  TRACK 401 AUDIO
    TITLE "0:"
    INDEX 01 08:41:18
  TRACK 402 AUDIO
    TITLE "28:cjc023_5060"
    INDEX 01 08:42:16
  TRACK 403 AUDIO
    TITLE "0:"
    INDEX 01 08:43:39
  TRACK 404 AUDIO
    TITLE "29:cjc023_5061"
    INDEX 01 08:44:12
  TRACK 405 AUDIO
    TITLE "0:"
    INDEX 01 08:45:51
  TRACK 406 AUDIO
    TITLE "30:cjc023_5062"
    INDEX 01 08:45:71
  TRACK 407 AUDIO
    TITLE "0:"
    INDEX 01 08:47:56
  TRACK 408 AUDIO
    TITLE "31:cjc023_5063"
    INDEX 01 08:48:04
  TRACK 409 AUDIO
    TITLE "0:"
    INDEX 01 08:49:65
  TRACK 410 AUDIO
    TITLE "28:cjc023_5064"
    INDEX 01 08:50:62
  TRACK 411 AUDIO
    TITLE "0:"
    INDEX 01 08:52:06
  TRACK 412 AUDIO
    TITLE "29:cjc023_5065"
    INDEX 01 08:52:51
  TRACK 413 AUDIO
    TITLE "0:"
    INDEX 01 08:56:69
  TRACK 414 AUDIO
    TITLE "30:cjc023_5066"
    INDEX 01 08:57:17
  TRACK 415 AUDIO
    TITLE "0:"
    INDEX 01 09:00:17
  TRACK 416 AUDIO
    TITLE "31:cjc023_5067"
    INDEX 01 09:00:39
  TRACK 417 AUDIO
    TITLE "0:"
    INDEX 01 09:03:39
  TRACK 418 AUDIO
    TITLE "28:cjc023_5068"
    INDEX 01 09:04:37
  TRACK 419 AUDIO
    TITLE "0:"
    INDEX 01 09:05:38
  TRACK 420 AUDIO
    TITLE "29:cjc023_5069"
    INDEX 01 09:06:12
  TRACK 421 AUDIO
    TITLE "0:"
    INDEX 01 09:08:07
  TRACK 422 AUDIO
    TITLE "30:cjc023_5070"
    INDEX 01 09:08:29
  TRACK 423 AUDIO
    TITLE "0:"
    INDEX 01 09:10:37
  TRACK 424 AUDIO
    TITLE "31:cjc023_5071"
    INDEX 01 09:10:57
  TRACK 425 AUDIO
    TITLE "0:"
    INDEX 01 09:12:64
  TRACK 426 AUDIO
    TITLE "28:cjc023_5072"
    INDEX 01 09:13:59
  TRACK 427 AUDIO
    TITLE "0:"
    INDEX 01 09:14:65
  TRACK 428 AUDIO
    TITLE "29:cjc023_5073"
    INDEX 01 09:15:35
  TRACK 429 AUDIO
    TITLE "0:"
    INDEX 01 09:17:43
  TRACK 430 AUDIO
    TITLE "30:cjc023_5074"
    INDEX 01 09:17:67
  TRACK 431 AUDIO
    TITLE "0:"
    INDEX 01 09:19:42
  TRACK 432 AUDIO
    TITLE "31:cjc023_5075"
    INDEX 01 09:19:64
  TRACK 433 AUDIO
    TITLE "0:"
    INDEX 01 09:21:41
  TRACK 434 AUDIO
    TITLE "28:cjc023_5076"
    INDEX 01 09:22:37
  TRACK 435 AUDIO
    TITLE "0:"
    INDEX 01 09:23:38
  TRACK 436 AUDIO
    TITLE "29:cjc023_5077"
    INDEX 01 09:24:22
  TRACK 437 AUDIO
    TITLE "0:"
    INDEX 01 09:26:23
  TRACK 438 AUDIO
    TITLE "30:cjc023_5078"
    INDEX 01 09:26:44
  TRACK 439 AUDIO
    TITLE "0:"
    INDEX 01 09:28:35
  TRACK 440 AUDIO
    TITLE "31:cjc023_5079"
    INDEX 01 09:28:57
  TRACK 441 AUDIO
    TITLE "0:"
    INDEX 01 09:30:46
  TRACK 442 AUDIO
    TITLE "28:cjc023_5080"
    INDEX 01 09:31:43
  TRACK 443 AUDIO
    TITLE "0:"
    INDEX 01 09:32:70
  TRACK 444 AUDIO
    TITLE "29:cjc023_5081"
    INDEX 01 09:33:38
  TRACK 445 AUDIO
    TITLE "0:"
    INDEX 01 09:35:27
  TRACK 446 AUDIO
    TITLE "30:cjc023_5082"
    INDEX 01 09:35:55
  TRACK 447 AUDIO
    TITLE "0:"
    INDEX 01 09:37:50
  TRACK 448 AUDIO
    TITLE "31:cjc023_5083"
    INDEX 01 09:37:71
  TRACK 449 AUDIO
    TITLE "0:"
    INDEX 01 09:39:68
  TRACK 450 AUDIO
    TITLE "28:cjc023_5084"
    INDEX 01 09:40:64
  TRACK 451 AUDIO
    TITLE "0:"
    INDEX 01 09:41:73
  TRACK 452 AUDIO
    TITLE "29:cjc023_5085"
    INDEX 01 09:42:47
  TRACK 453 AUDIO
    TITLE "0:"
    INDEX 01 09:44:21
  TRACK 454 AUDIO
    TITLE "30:cjc023_5086"
    INDEX 01 09:44:42
  TRACK 455 AUDIO
    TITLE "0:"
    INDEX 01 09:46:23
  TRACK 456 AUDIO
    TITLE "31:cjc023_5087"
    INDEX 01 09:46:43
  TRACK 457 AUDIO
    TITLE "0:"
    INDEX 01 09:48:24
  TRACK 458 AUDIO
    TITLE "28:cjc023_5088"
    INDEX 01 09:49:22
  TRACK 459 AUDIO
    TITLE "0:"
    INDEX 01 09:50:33
  TRACK 460 AUDIO
    TITLE "29:cjc023_5089"
    INDEX 01 09:51:07
  TRACK 461 AUDIO
    TITLE "0:"
    INDEX 01 09:53:61
  TRACK 462 AUDIO
    TITLE "30:cjc023_5090"
    INDEX 01 09:54:13
  TRACK 463 AUDIO
    TITLE "0:"
    INDEX 01 09:56:34
  TRACK 464 AUDIO
    TITLE "31:cjc023_5091"
    INDEX 01 09:56:59
  TRACK 465 AUDIO
    TITLE "0:"
    INDEX 01 09:59:04
  TRACK 466 AUDIO
    TITLE "28:cjc023_5092"
    INDEX 01 09:59:73
  TRACK 467 AUDIO
    TITLE "0:"
    INDEX 01 10:01:15
  TRACK 468 AUDIO
    TITLE "29:cjc023_5093"
    INDEX 01 10:01:62
  TRACK 469 AUDIO
    TITLE "0:"
    INDEX 01 10:03:43
  TRACK 470 AUDIO
    TITLE "30:cjc023_5094"
    INDEX 01 10:03:63
  TRACK 471 AUDIO
    TITLE "0:"
    INDEX 01 10:05:60
  TRACK 472 AUDIO
    TITLE "31:cjc023_5095"
    INDEX 01 10:06:06
  TRACK 473 AUDIO
    TITLE "0:"
    INDEX 01 10:08:05
  TRACK 474 AUDIO
    TITLE "28:cjc023_5096"
    INDEX 01 10:08:74
  TRACK 475 AUDIO
    TITLE "0:"
    INDEX 01 10:10:22
  TRACK 476 AUDIO
    TITLE "29:cjc023_5097"
    INDEX 01 10:10:69
  TRACK 477 AUDIO
    TITLE "0:"
    INDEX 01 10:12:64
  TRACK 478 AUDIO
    TITLE "30:cjc023_5098"
    INDEX 01 10:13:20
  TRACK 479 AUDIO
    TITLE "0:"
    INDEX 01 10:15:02
  TRACK 480 AUDIO
    TITLE "31:cjc023_5099"
    INDEX 01 10:15:27
  TRACK 481 AUDIO
    TITLE "0:"
    INDEX 01 10:17:08
  TRACK 482 AUDIO
    TITLE "28:cjc023_5100"
    INDEX 01 10:18:04
  TRACK 483 AUDIO
    TITLE "0:"
    INDEX 01 10:19:25
  TRACK 484 AUDIO
    TITLE "29:cjc023_5101"
    INDEX 01 10:19:72
  TRACK 485 AUDIO
    TITLE "0:"
    INDEX 01 10:24:51
  TRACK 486 AUDIO
    TITLE "30:cjc023_5102"
    INDEX 01 10:25:02
  TRACK 487 AUDIO
    TITLE "0:"
    INDEX 01 10:28:20
  TRACK 488 AUDIO
    TITLE "31:cjc023_5103"
    INDEX 01 10:28:41
  TRACK 489 AUDIO
    TITLE "0:"
    INDEX 01 10:31:59
  TRACK 490 AUDIO
    TITLE "28:cjc023_5104"
    INDEX 01 10:32:57
  TRACK 491 AUDIO
    TITLE "0:"
    INDEX 01 10:33:64
  TRACK 492 AUDIO
    TITLE "29:cjc023_5105"
    INDEX 01 10:34:40
  TRACK 493 AUDIO
    TITLE "0:"
    INDEX 01 10:37:07
  TRACK 494 AUDIO
    TITLE "30:cjc023_5106"
    INDEX 01 10:37:33
  TRACK 495 AUDIO
    TITLE "0:"
    INDEX 01 10:39:33
  TRACK 496 AUDIO
    TITLE "31:cjc023_5107"
    INDEX 01 10:39:57
  TRACK 497 AUDIO
    TITLE "0:"
    INDEX 01 10:41:60
  TRACK 498 AUDIO
    TITLE "28:cjc023_5108"
    INDEX 01 10:42:57
  TRACK 499 AUDIO
    TITLE "0:"
    INDEX 01 10:44:09
  TRACK 500 AUDIO
    TITLE "29:cjc023_5109"
    INDEX 01 10:44:54
  TRACK 501 AUDIO
    TITLE "0:"
    INDEX 01 10:47:11
  TRACK 502 AUDIO
    TITLE "30:cjc023_5110"
    INDEX 01 10:47:39
  TRACK 503 AUDIO
    TITLE "0:"
    INDEX 01 10:50:06
  TRACK 504 AUDIO
    TITLE "31:cjc023_5111"
    INDEX 01 10:50:27
  TRACK 505 AUDIO
    TITLE "0:"
    INDEX 01 10:52:71
  TRACK 506 AUDIO
    TITLE "28:cjc023_5112"
    INDEX 01 10:53:67
  TRACK 507 AUDIO
    TITLE "0:"
    INDEX 01 10:55:17
  TRACK 508 AUDIO
    TITLE "29:cjc023_5113"
    INDEX 01 10:55:64
  TRACK 509 AUDIO
    TITLE "0:"
    INDEX 01 10:58:11
  TRACK 510 AUDIO
    TITLE "30:cjc023_5114"
    INDEX 01 10:58:31
  TRACK 511 AUDIO
    TITLE "0:"
    INDEX 01 11:00:28
  TRACK 512 AUDIO
    TITLE "31:cjc023_5115"
    INDEX 01 11:00:49
  TRACK 513 AUDIO
    TITLE "0:"
    INDEX 01 11:02:46
  TRACK 514 AUDIO
    TITLE "28:cjc023_5116"
    INDEX 01 11:03:42
  TRACK 515 AUDIO
    TITLE "0:"
    INDEX 01 11:04:69
  TRACK 516 AUDIO
    TITLE "29:cjc023_5117"
    INDEX 01 11:05:43
  TRACK 517 AUDIO
    TITLE "0:"
    INDEX 01 11:08:64
  TRACK 518 AUDIO
    TITLE "30:cjc023_5118"
    INDEX 01 11:09:11
  TRACK 519 AUDIO
    TITLE "0:"
    INDEX 01 11:12:31
  TRACK 520 AUDIO
    TITLE "31:cjc023_5119"
    INDEX 01 11:12:54
  TRACK 521 AUDIO
    TITLE "0:"
    INDEX 01 11:15:74
  TRACK 522 AUDIO
    TITLE "28:cjc023_5120"
    INDEX 01 11:16:72
  TRACK 523 AUDIO
    TITLE "0:"
    INDEX 01 11:18:41
  TRACK 524 AUDIO
    TITLE "29:cjc023_5121"
    INDEX 01 11:19:17
  TRACK 525 AUDIO
    TITLE "0:"
    INDEX 01 11:22:41
  TRACK 526 AUDIO
    TITLE "30:cjc023_5122"
    INDEX 01 11:22:65
  TRACK 527 AUDIO
    TITLE "0:"
    INDEX 01 11:26:09
  TRACK 528 AUDIO
    TITLE "31:cjc023_5123"
    INDEX 01 11:26:31
  TRACK 529 AUDIO
    TITLE "0:"
    INDEX 01 11:29:53
  TRACK 530 AUDIO
    TITLE "28:cjc023_5124"
    INDEX 01 11:30:48
  TRACK 531 AUDIO
    TITLE "0:"
    INDEX 01 11:32:08
  TRACK 532 AUDIO
    TITLE "29:cjc023_5125"
    INDEX 01 11:32:53
  TRACK 533 AUDIO
    TITLE "0:"
    INDEX 01 11:35:06
  TRACK 534 AUDIO
    TITLE "30:cjc023_5126"
    INDEX 01 11:35:34
  TRACK 535 AUDIO
    TITLE "0:"
    INDEX 01 11:37:48
  TRACK 536 AUDIO
    TITLE "31:cjc023_5127"
    INDEX 01 11:38:05
  TRACK 537 AUDIO
    TITLE "0:"
    INDEX 01 11:40:13
  TRACK 538 AUDIO
    TITLE "28:cjc023_5128"
    INDEX 01 11:41:11
  TRACK 539 AUDIO
    TITLE "0:"
    INDEX 01 11:42:50
  TRACK 540 AUDIO
    TITLE "29:cjc023_5129"
    INDEX 01 11:43:22
  TRACK 541 AUDIO
    TITLE "0:"
    INDEX 01 11:44:62
  TRACK 542 AUDIO
    TITLE "30:cjc023_5130"
    INDEX 01 11:45:11
  TRACK 543 AUDIO
    TITLE "0:"
    INDEX 01 11:47:39
  TRACK 544 AUDIO
    TITLE "31:cjc023_5131"
    INDEX 01 11:47:66
  TRACK 545 AUDIO
    TITLE "0:"
    INDEX 01 11:50:22
  TRACK 546 AUDIO
    TITLE "28:cjc023_5132"
    INDEX 01 11:51:19
  TRACK 547 AUDIO
    TITLE "0:"
    INDEX 01 11:52:38
  TRACK 548 AUDIO
    TITLE "29:cjc023_5133"
    INDEX 01 11:53:12
  TRACK 549 AUDIO
    TITLE "0:"
    INDEX 01 11:55:15
  TRACK 550 AUDIO
    TITLE "30:cjc023_5134"
    INDEX 01 11:55:37
  TRACK 551 AUDIO
    TITLE "0:"
    INDEX 01 11:57:39
  TRACK 552 AUDIO
    TITLE "31:cjc023_5135"
    INDEX 01 11:57:61
  TRACK 553 AUDIO
    TITLE "0:"
    INDEX 01 11:59:66
  TRACK 554 AUDIO
    TITLE "28:cjc023_5136"
    INDEX 01 12:00:61
  TRACK 555 AUDIO
    TITLE "0:"
    INDEX 01 12:02:19
  TRACK 556 AUDIO
    TITLE "29:cjc023_5137"
    INDEX 01 12:02:68
  TRACK 557 AUDIO
    TITLE "0:"
    INDEX 01 12:05:13
  TRACK 558 AUDIO
    TITLE "30:cjc023_5138"
    INDEX 01 12:05:37
  TRACK 559 AUDIO
    TITLE "0:"
    INDEX 01 12:07:46
  TRACK 560 AUDIO
    TITLE "31:cjc023_5139"
    INDEX 01 12:07:69
  TRACK 561 AUDIO
    TITLE "0:"
    INDEX 01 12:10:03
  TRACK 562 AUDIO
    TITLE "28:cjc023_5140"
    INDEX 01 12:11:02
  TRACK 563 AUDIO
    TITLE "0:"
    INDEX 01 12:12:10
  TRACK 564 AUDIO
    TITLE "29:cjc023_5141"
    INDEX 01 12:12:57
  TRACK 565 AUDIO
    TITLE "0:"
    INDEX 01 12:15:69
  TRACK 566 AUDIO
    TITLE "30:cjc023_5142"
    INDEX 01 12:16:17
  TRACK 567 AUDIO
    TITLE "0:"
    INDEX 01 12:19:35
  TRACK 568 AUDIO
    TITLE "31:cjc023_5143"
    INDEX 01 12:19:59
  TRACK 569 AUDIO
    TITLE "0:"
    INDEX 01 12:23:00
  TRACK 570 AUDIO
    TITLE "28:cjc023_5144"
    INDEX 01 12:23:72
  TRACK 571 AUDIO
    TITLE "0:"
    INDEX 01 12:25:12
  TRACK 572 AUDIO
    TITLE "29:cjc023_5145"
    INDEX 01 12:25:59
  TRACK 573 AUDIO
    TITLE "0:"
    INDEX 01 12:27:52
  TRACK 574 AUDIO
    TITLE "30:cjc023_5146"
    INDEX 01 12:27:74
  TRACK 575 AUDIO
    TITLE "0:"
    INDEX 01 12:29:63
  TRACK 576 AUDIO
    TITLE "31:cjc023_5147"
    INDEX 01 12:30:06
  TRACK 577 AUDIO
    TITLE "0:"
    INDEX 01 12:31:70
  TRACK 578 AUDIO
    TITLE "28:cjc023_5148"
    INDEX 01 12:32:67
  TRACK 579 AUDIO
    TITLE "0:"
    INDEX 01 12:34:11
  TRACK 580 AUDIO
    TITLE "29:cjc023_5149"
    INDEX 01 12:34:56
  TRACK 581 AUDIO
    TITLE "0:"
    INDEX 01 12:37:60
  TRACK 582 AUDIO
    TITLE "30:cjc023_5150"
    INDEX 01 12:38:09
  TRACK 583 AUDIO
    TITLE "0:"
    INDEX 01 12:41:21
  TRACK 584 AUDIO
    TITLE "31:cjc023_5151"
    INDEX 01 12:41:43
  TRACK 585 AUDIO
    TITLE "0:"
    INDEX 01 12:44:53
  TRACK 586 AUDIO
    TITLE "28:cjc023_5152"
    INDEX 01 12:45:48
  TRACK 587 AUDIO
    TITLE "0:"
    INDEX 01 12:46:69
  TRACK 588 AUDIO
    TITLE "29:cjc023_5153"
    INDEX 01 12:47:41
  TRACK 589 AUDIO
    TITLE "0:"
    INDEX 01 12:49:71
  TRACK 590 AUDIO
    TITLE "30:cjc023_5154"
    INDEX 01 12:50:16
  TRACK 591 AUDIO
    TITLE "0:"
    INDEX 01 12:52:60
  TRACK 592 AUDIO
    TITLE "31:cjc023_5155"
    INDEX 01 12:53:07
  TRACK 593 AUDIO
    TITLE "0:"
    INDEX 01 12:55:49
  TRACK 594 AUDIO
    TITLE "28:cjc023_5156"
    INDEX 01 12:56:46
  TRACK 595 AUDIO
    TITLE "0:"
    INDEX 01 12:57:53
  TRACK 596 AUDIO
    TITLE "29:cjc023_5157"
    INDEX 01 12:58:23
  TRACK 597 AUDIO
    TITLE "0:"
    INDEX 01 13:00:18
  TRACK 598 AUDIO
    TITLE "30:cjc023_5158"
    INDEX 01 13:00:44
  TRACK 599 AUDIO
    TITLE "0:"
    INDEX 01 13:02:00
  TRACK 600 AUDIO
    TITLE "31:cjc023_5159"
    INDEX 01 13:02:29
  TRACK 601 AUDIO
    TITLE "0:"
    INDEX 01 13:03:58
  TRACK 602 AUDIO
    TITLE "28:cjc023_5160"
    INDEX 01 13:04:59
  TRACK 603 AUDIO
    TITLE "0:"
    INDEX 01 13:06:07
  TRACK 604 AUDIO
    TITLE "29:cjc023_5161"
    INDEX 01 13:06:52
  TRACK 605 AUDIO
    TITLE "0:"
    INDEX 01 13:08:30
  TRACK 606 AUDIO
    TITLE "30:cjc023_5162"
    INDEX 01 13:08:51
  TRACK 607 AUDIO
    TITLE "0:"
    INDEX 01 13:11:12
  TRACK 608 AUDIO
    TITLE "31:cjc023_5163"
    INDEX 01 13:11:34
  TRACK 609 AUDIO
    TITLE "0:"
    INDEX 01 13:13:70
  TRACK 610 AUDIO
    TITLE "28:cjc023_5164"
    INDEX 01 13:14:67
  TRACK 611 AUDIO
    TITLE "0:"
    INDEX 01 13:16:02
  TRACK 612 AUDIO
    TITLE "29:cjc023_5165"
    INDEX 01 13:16:51
  TRACK 613 AUDIO
    TITLE "0:"
    INDEX 01 13:19:10
  TRACK 614 AUDIO
    TITLE "30:cjc023_5166"
    INDEX 01 13:19:31
  TRACK 615 AUDIO
    TITLE "0:"
    INDEX 01 13:21:64
  TRACK 616 AUDIO
    TITLE "31:cjc023_5167"
    INDEX 01 13:22:10
  TRACK 617 AUDIO
    TITLE "0:"
    INDEX 01 13:24:44
  TRACK 618 AUDIO
    TITLE "28:cjc023_5168"
    INDEX 01 13:25:42
  TRACK 619 AUDIO
    TITLE "0:"
    INDEX 01 13:26:69
  TRACK 620 AUDIO
    TITLE "29:cjc023_5169"
    INDEX 01 13:27:43
  TRACK 621 AUDIO
    TITLE "0:"
    INDEX 01 13:31:31
  TRACK 622 AUDIO
    TITLE "30:cjc023_5170"
    INDEX 01 13:31:56
  TRACK 623 AUDIO
    TITLE "0:"
    INDEX 01 13:34:62
  TRACK 624 AUDIO
    TITLE "31:cjc023_5171"
    INDEX 01 13:35:07
  TRACK 625 AUDIO
    TITLE "0:"
    INDEX 01 13:38:11
  TRACK 626 AUDIO
    TITLE "28:cjc023_5172"
    INDEX 01 13:39:07
  TRACK 627 AUDIO
    TITLE "0:"
    INDEX 01 13:40:10
  TRACK 628 AUDIO
    TITLE "29:cjc023_5173"
    INDEX 01 13:40:57
  TRACK 629 AUDIO
    TITLE "0:"
    INDEX 01 13:42:38
  TRACK 630 AUDIO
    TITLE "30:cjc023_5174"
    INDEX 01 13:42:62
  TRACK 631 AUDIO
    TITLE "0:"
    INDEX 01 13:44:35
  TRACK 632 AUDIO
    TITLE "31:cjc023_5175"
    INDEX 01 13:44:57
  TRACK 633 AUDIO
    TITLE "0:"
    INDEX 01 13:46:30
  TRACK 634 AUDIO
    TITLE "28:cjc023_5176"
    INDEX 01 13:47:28
  TRACK 635 AUDIO
    TITLE "0:"
    INDEX 01 13:48:43
  TRACK 636 AUDIO
    TITLE "29:cjc023_5177"
    INDEX 01 13:49:13
  TRACK 637 AUDIO
    TITLE "0:"
    INDEX 01 13:50:71
  TRACK 638 AUDIO
    TITLE "30:cjc023_5178"
    INDEX 01 13:51:20
  TRACK 639 AUDIO
    TITLE "0:"
    INDEX 01 13:53:01
  TRACK 640 AUDIO
    TITLE "31:cjc023_5179"
    INDEX 01 13:53:22
  TRACK 641 AUDIO
    TITLE "0:"
    INDEX 01 13:55:04
  TRACK 642 AUDIO
    TITLE "28:cjc023_5180"
    INDEX 01 13:55:74
  TRACK 643 AUDIO
    TITLE "0:"
    INDEX 01 13:57:24
  TRACK 644 AUDIO
    TITLE "29:cjc023_5181"
    INDEX 01 13:57:71
  TRACK 645 AUDIO
    TITLE "0:"
    INDEX 01 14:00:03
  TRACK 646 AUDIO
    TITLE "30:cjc023_5182"
    INDEX 01 14:00:24
  TRACK 647 AUDIO
    TITLE "0:"
    INDEX 01 14:02:19
  TRACK 648 AUDIO
    TITLE "31:cjc023_5183"
    INDEX 01 14:02:41
  TRACK 649 AUDIO
    TITLE "0:"
    INDEX 01 14:04:38
  TRACK 650 AUDIO
    TITLE "28:cjc023_5184"
    INDEX 01 14:05:33
  TRACK 651 AUDIO
    TITLE "0:"
    INDEX 01 14:06:60
  TRACK 652 AUDIO
    TITLE "29:cjc023_5185"
    INDEX 01 14:07:30
  TRACK 653 AUDIO
    TITLE "0:"
    INDEX 01 14:09:29
  TRACK 654 AUDIO
    TITLE "30:cjc023_5186"
    INDEX 01 14:09:59
  TRACK 655 AUDIO
    TITLE "0:"
    INDEX 01 14:11:71
  TRACK 656 AUDIO
    TITLE "31:cjc023_5187"
    INDEX 01 14:12:24
  TRACK 657 AUDIO
    TITLE "0:"
    INDEX 01 14:14:36
  TRACK 658 AUDIO
    TITLE "28:cjc023_5188"
    INDEX 01 14:15:34
  TRACK 659 AUDIO
    TITLE "0:"
    INDEX 01 14:16:51
  TRACK 660 AUDIO
    TITLE "29:cjc023_5189"
    INDEX 01 14:17:21
  TRACK 661 AUDIO
    TITLE "0:"
    INDEX 01 14:18:58
  TRACK 662 AUDIO
    TITLE "30:cjc023_5190"
    INDEX 01 14:19:12
  TRACK 663 AUDIO
    TITLE "0:"
    INDEX 01 14:20:59
  TRACK 664 AUDIO
    TITLE "31:cjc023_5191"
    INDEX 01 14:21:05
  TRACK 665 AUDIO
    TITLE "0:"
    INDEX 01 14:22:54
  TRACK 666 AUDIO
    TITLE "28:cjc023_5192"
    INDEX 01 14:23:51
  TRACK 667 AUDIO
    TITLE "0:"
    INDEX 01 14:25:21
  TRACK 668 AUDIO
    TITLE "29:cjc023_5193"
    INDEX 01 14:25:69
  TRACK 669 AUDIO
    TITLE "0:"
    INDEX 01 14:28:56
  TRACK 670 AUDIO
    TITLE "30:cjc023_5194"
    INDEX 01 14:29:07
  TRACK 671 AUDIO
    TITLE "0:"
    INDEX 01 14:32:32
  TRACK 672 AUDIO
    TITLE "31:cjc023_5195"
    INDEX 01 14:32:58
  TRACK 673 AUDIO
    TITLE "0:"
    INDEX 01 14:36:11
  TRACK 674 AUDIO
    TITLE "28:cjc023_5196"
    INDEX 01 14:37:12
  TRACK 675 AUDIO
    TITLE "0:"
    INDEX 01 14:38:35
  TRACK 676 AUDIO
    TITLE "29:cjc023_5197"
    INDEX 01 14:39:07
  TRACK 677 AUDIO
    TITLE "0:"
    INDEX 01 14:41:04
  TRACK 678 AUDIO
    TITLE "30:cjc023_5198"
    INDEX 01 14:41:31
  TRACK 679 AUDIO
    TITLE "0:"
    INDEX 01 14:43:42
  TRACK 680 AUDIO
    TITLE "31:cjc023_5199"
    INDEX 01 14:43:69
  TRACK 681 AUDIO
    TITLE "0:"
    INDEX 01 14:46:05
  TRACK 682 AUDIO
    TITLE "28:cjc023_5200"
    INDEX 01 14:47:04
  TRACK 683 AUDIO
    TITLE "0:"
    INDEX 01 14:48:16
  TRACK 684 AUDIO
    TITLE "29:cjc023_5201"
    INDEX 01 14:48:65
  TRACK 685 AUDIO
    TITLE "0:"
    INDEX 01 14:51:10
  TRACK 686 AUDIO
    TITLE "30:cjc023_5202"
    INDEX 01 14:51:32
  TRACK 687 AUDIO
    TITLE "0:"
    INDEX 01 14:53:52
  TRACK 688 AUDIO
    TITLE "31:cjc023_5203"
    INDEX 01 14:53:74
  TRACK 689 AUDIO
    TITLE "0:"
    INDEX 01 14:56:21
  TRACK 690 AUDIO
    TITLE "28:cjc023_5204"
    INDEX 01 14:57:19
  TRACK 691 AUDIO
    TITLE "0:"
    INDEX 01 14:58:32
  TRACK 692 AUDIO
    TITLE "29:cjc023_5205"
    INDEX 01 14:59:04
  TRACK 693 AUDIO
    TITLE "0:"
    INDEX 01 15:01:09
  TRACK 694 AUDIO
    TITLE "30:cjc023_5206"
    INDEX 01 15:01:28
  TRACK 695 AUDIO
    TITLE "0:"
    INDEX 01 15:03:19
  TRACK 696 AUDIO
    TITLE "31:cjc023_5207"
    INDEX 01 15:03:41
  TRACK 697 AUDIO
    TITLE "0:"
    INDEX 01 15:05:32
  TRACK 698 AUDIO
    TITLE "28:cjc023_5208"
    INDEX 01 15:06:29
  TRACK 699 AUDIO
    TITLE "0:"
    INDEX 01 15:07:33
  TRACK 700 AUDIO
    TITLE "29:cjc023_5209"
    INDEX 01 15:08:05
  TRACK 701 AUDIO
    TITLE "0:"
    INDEX 01 15:10:51
  TRACK 702 AUDIO
    TITLE "30:cjc023_5210"
    INDEX 01 15:11:03
  TRACK 703 AUDIO
    TITLE "0:"
    INDEX 01 15:13:59
  TRACK 704 AUDIO
    TITLE "31:cjc023_5211"
    INDEX 01 15:14:05
  TRACK 705 AUDIO
    TITLE "0:"
    INDEX 01 15:16:61
  TRACK 706 AUDIO
    TITLE "28:cjc023_5212"
    INDEX 01 15:17:57
  TRACK 707 AUDIO
    TITLE "0:"
    INDEX 01 15:19:10
  TRACK 708 AUDIO
    TITLE "29:cjc023_5213"
    INDEX 01 15:19:57
  TRACK 709 AUDIO
    TITLE "0:"
    INDEX 01 15:22:09
  TRACK 710 AUDIO
    TITLE "30:cjc023_5214"
    INDEX 01 15:22:32
  TRACK 711 AUDIO
    TITLE "0:"
    INDEX 01 15:25:01
  TRACK 712 AUDIO
    TITLE "31:cjc023_5215"
    INDEX 01 15:25:21
  TRACK 713 AUDIO
    TITLE "0:"
    INDEX 01 15:27:65
  TRACK 714 AUDIO
    TITLE "28:cjc023_5216"
    INDEX 01 15:28:62
  TRACK 715 AUDIO
    TITLE "0:"
    INDEX 01 15:30:38
  TRACK 716 AUDIO
    TITLE "29:cjc023_5217"
    INDEX 01 15:31:10
  TRACK 717 AUDIO
    TITLE "0:"
    INDEX 01 15:35:74
  TRACK 718 AUDIO
    TITLE "30:cjc023_5218"
    INDEX 01 15:36:19
  TRACK 719 AUDIO
    TITLE "0:"
    INDEX 01 15:39:62
  TRACK 720 AUDIO
    TITLE "31:cjc023_5219"
    INDEX 01 15:40:09
  TRACK 721 AUDIO
    TITLE "0:"
    INDEX 01 15:43:52
  TRACK 722 AUDIO
    TITLE "28:cjc023_5220"
    INDEX 01 15:44:53
  TRACK 723 AUDIO
    TITLE "0:"
    INDEX 01 15:45:69
  TRACK 724 AUDIO
    TITLE "29:cjc023_5221"
    INDEX 01 15:46:44
  TRACK 725 AUDIO
    TITLE "0:"
    INDEX 01 15:48:34
  TRACK 726 AUDIO
    TITLE "30:cjc023_5222"
    INDEX 01 15:48:59
  TRACK 727 AUDIO
    TITLE "0:"
    INDEX 01 15:50:56
  TRACK 728 AUDIO
    TITLE "31:cjc023_5223"
    INDEX 01 15:51:03
  TRACK 729 AUDIO
    TITLE "0:"
    INDEX 01 15:53:01
  TRACK 730 AUDIO
    TITLE "28:cjc023_5224"
    INDEX 01 15:53:70
  TRACK 731 AUDIO
    TITLE "0:"
    INDEX 01 15:55:02
  TRACK 732 AUDIO
    TITLE "29:cjc023_5225"
    INDEX 01 15:55:51
  TRACK 733 AUDIO
    TITLE "0:"
    INDEX 01 15:59:51
  TRACK 734 AUDIO
    TITLE "30:cjc023_5226"
    INDEX 01 16:00:01
  TRACK 735 AUDIO
    TITLE "0:"
    INDEX 01 16:02:12
  TRACK 736 AUDIO
    TITLE "31:cjc023_5227"
    INDEX 01 16:02:32
  TRACK 737 AUDIO
    TITLE "0:"
    INDEX 01 16:04:42
  TRACK 738 AUDIO
    TITLE "28:cjc023_5228"
    INDEX 01 16:05:36
  TRACK 739 AUDIO
    TITLE "0:"
    INDEX 01 16:06:47
  TRACK 740 AUDIO
    TITLE "29:cjc023_5229"
    INDEX 01 16:07:21
  TRACK 741 AUDIO
    TITLE "0:"
    INDEX 01 16:09:40
  TRACK 742 AUDIO
    TITLE "30:cjc023_5230"
    INDEX 01 16:09:59
  TRACK 743 AUDIO
    TITLE "0:"
    INDEX 01 16:12:14
  TRACK 744 AUDIO
    TITLE "31:cjc023_5231"
    INDEX 01 16:12:32
  TRACK 745 AUDIO
    TITLE "0:"
    INDEX 01 16:14:64
  TRACK 746 AUDIO
    TITLE "28:cjc023_5232"
    INDEX 01 16:15:60
  TRACK 747 AUDIO
    TITLE "0:"
    INDEX 01 16:17:12
  TRACK 748 AUDIO
    TITLE "29:cjc023_5233"
    INDEX 01 16:17:59
  TRACK 749 AUDIO
    TITLE "0:"
    INDEX 01 16:20:53
  TRACK 750 AUDIO
    TITLE "30:cjc023_5234"
    INDEX 01 16:21:02
  TRACK 751 AUDIO
    TITLE "0:"
    INDEX 01 16:24:18
  TRACK 752 AUDIO
    TITLE "31:cjc023_5235"
    INDEX 01 16:24:39
  TRACK 753 AUDIO
    TITLE "0:"
    INDEX 01 16:27:55
  TRACK 754 AUDIO
    TITLE "28:cjc023_5236"
    INDEX 01 16:28:51
  TRACK 755 AUDIO
    TITLE "0:"
    INDEX 01 16:29:70
  TRACK 756 AUDIO
    TITLE "29:cjc023_5237"
    INDEX 01 16:30:44
  TRACK 757 AUDIO
    TITLE "0:"
    INDEX 01 16:32:56
  TRACK 758 AUDIO
    TITLE "30:cjc023_5238"
    INDEX 01 16:33:05
  TRACK 759 AUDIO
    TITLE "0:"
    INDEX 01 16:35:39
  TRACK 760 AUDIO
    TITLE "31:cjc023_5239"
    INDEX 01 16:35:61
  TRACK 761 AUDIO
    TITLE "0:"
    INDEX 01 16:38:22
  TRACK 762 AUDIO
    TITLE "28:cjc023_5240"
    INDEX 01 16:39:19
  TRACK 763 AUDIO
    TITLE "0:"
    INDEX 01 16:40:24
  TRACK 764 AUDIO
    TITLE "29:cjc023_5241"
    INDEX 01 16:40:72
  TRACK 765 AUDIO
    TITLE "0:"
    INDEX 01 16:42:53
  TRACK 766 AUDIO
    TITLE "30:cjc023_5242"
    INDEX 01 16:42:72
  TRACK 767 AUDIO
    TITLE "0:"
    INDEX 01 16:44:40
  TRACK 768 AUDIO
    TITLE "31:cjc023_5243"
    INDEX 01 16:44:61
  TRACK 769 AUDIO
    TITLE "0:"
    INDEX 01 16:46:31
  TRACK 770 AUDIO
    TITLE "28:cjc023_5244"
    INDEX 01 16:47:27
  TRACK 771 AUDIO
    TITLE "0:"
    INDEX 01 16:48:38
  TRACK 772 AUDIO
    TITLE "29:cjc023_5245"
    INDEX 01 16:49:06
  TRACK 773 AUDIO
    TITLE "0:"
    INDEX 01 16:50:66
  TRACK 774 AUDIO
    TITLE "30:cjc023_5246"
    INDEX 01 16:51:11
  TRACK 775 AUDIO
    TITLE "0:"
    INDEX 01 16:52:63
  TRACK 776 AUDIO
    TITLE "31:cjc023_5247"
    INDEX 01 16:53:09
  TRACK 777 AUDIO
    TITLE "0:"
    INDEX 01 16:54:60
  TRACK 778 AUDIO
    TITLE "28:cjc023_5248"
    INDEX 01 16:55:57
  TRACK 779 AUDIO
    TITLE "0:"
    INDEX 01 16:57:03
  TRACK 780 AUDIO
    TITLE "29:cjc023_5249"
    INDEX 01 16:57:50
  TRACK 781 AUDIO
    TITLE "0:"
    INDEX 01 16:59:30
  TRACK 782 AUDIO
    TITLE "30:cjc023_5250"
    INDEX 01 16:59:51
  TRACK 783 AUDIO
    TITLE "0:"
    INDEX 01 17:01:68
  TRACK 784 AUDIO
    TITLE "31:cjc023_5251"
    INDEX 01 17:02:12
  TRACK 785 AUDIO
    TITLE "0:"
    INDEX 01 17:04:27
  TRACK 786 AUDIO
    TITLE "28:cjc023_5252"
    INDEX 01 17:05:22
  TRACK 787 AUDIO
    TITLE "0:"
    INDEX 01 17:06:40
  TRACK 788 AUDIO
    TITLE "29:cjc023_5253"
    INDEX 01 17:07:17
  TRACK 789 AUDIO
    TITLE "0:"
    INDEX 01 17:08:72
  TRACK 790 AUDIO
    TITLE "30:cjc023_5254"
    INDEX 01 17:09:18
  TRACK 791 AUDIO
    TITLE "0:"
    INDEX 01 17:11:17
  TRACK 792 AUDIO
    TITLE "31:cjc023_5255"
    INDEX 01 17:11:39
  TRACK 793 AUDIO
    TITLE "0:"
    INDEX 01 17:13:38
  TRACK 794 AUDIO
    TITLE "28:cjc023_5256"
    INDEX 01 17:14:33
  TRACK 795 AUDIO
    TITLE "0:"
    INDEX 01 17:15:40
  TRACK 796 AUDIO
    TITLE "29:cjc023_5257"
    INDEX 01 17:16:16
  TRACK 797 AUDIO
    TITLE "0:"
    INDEX 01 17:17:65
  TRACK 798 AUDIO
    TITLE "30:cjc023_5258"
    INDEX 01 17:18:11
  TRACK 799 AUDIO
    TITLE "0:"
    INDEX 01 17:19:72
  TRACK 800 AUDIO
    TITLE "31:cjc023_5259"
    INDEX 01 17:20:18
  TRACK 801 AUDIO
    TITLE "0:"
    INDEX 01 17:22:03
